<svg width="24" height="26" viewBox="0 0 24 26" fill="none" xmlns="http://www.w3.org/2000/svg">
<path d="M14.0178 23.5C13.8127 23.8536 13.5183 24.1471 13.164 24.3511C12.8098 24.5552 12.4082 24.6625 11.9995 24.6625C11.5907 24.6625 11.1891 24.5552 10.8349 24.3511C10.4806 24.1471 10.1862 23.8536 9.98112 23.5M19 8.33334C19 6.47683 18.2625 4.69635 16.9497 3.3836C15.637 2.07084 13.8565 1.33334 12 1.33334C10.1435 1.33334 8.36301 2.07084 7.05025 3.3836C5.7375 4.69635 5 6.47683 5 8.33334C5 16.5 1.5 18.8333 1.5 18.8333H22.5C22.5 18.8333 19 16.5 19 8.33334Z" stroke="#3D3DD8" stroke-width="2" stroke-linecap="round" stroke-linejoin="round"/>
</svg>
