<svg width="40" height="40" viewBox="0 0 40 40" fill="none" xmlns="http://www.w3.org/2000/svg">
<g filter="url(#filter0_b_556_6630)">
<rect width="40" height="40" rx="12" fill="#3D3DD8"/>
<g clip-path="url(#clip0_556_6630)">
<path d="M22.0422 27.808C22.1848 27.6908 22.3285 27.5778 22.4732 27.4691L22.5673 27.6779C22.3915 27.7191 22.2164 27.7624 22.0422 27.808ZM30.7501 26.7747C30.7097 26.777 30.669 26.7793 30.6278 26.7815L30.6234 26.6222H30.7501V26.7747ZM27.5743 11.7273L27.5499 11.5665C27.6122 11.5572 27.6742 11.5484 27.736 11.5401V11.7273H27.5743ZM20 29.6522L20.1205 29.7624C20.0537 29.7734 19.9705 29.7778 19.8795 29.7624L20 29.6522ZM19.0594 29.455C19.1929 29.5035 19.3251 29.5539 19.4559 29.6061V29.1546L19.2685 28.9833C19.2563 29.0002 19.2441 29.018 19.232 29.0367C19.1889 29.1035 19.1033 29.2485 19.0594 29.455ZM17.5267 27.4691C17.6714 27.5778 17.8152 27.6907 17.9578 27.808C17.7836 27.7624 17.6085 27.719 17.4326 27.6778L17.5267 27.4691Z" fill="white" stroke="white" stroke-width="2.5"/>
<path d="M17.4638 16.8053C16.9171 16.4244 15.9745 15.9569 14.9686 15.7869C14.5844 15.7217 14.22 15.9809 14.155 16.3653C14.0901 16.7497 14.349 17.114 14.7334 17.1789C15.5101 17.3101 16.2549 17.6837 16.6568 17.9637C16.9765 18.1864 17.4165 18.1079 17.6395 17.788C17.8623 17.4681 17.7836 17.0281 17.4638 16.8053V16.8053Z" fill="white"/>
<path d="M17.3931 20.7808C16.8901 20.4736 15.9062 19.9346 14.9686 19.7761C14.5844 19.711 14.22 19.9701 14.155 20.3545C14.0901 20.739 14.349 21.1032 14.7334 21.1681C15.4638 21.2916 16.3221 21.7809 16.6573 21.9856C16.9904 22.1889 17.4246 22.0834 17.6276 21.7511C17.8308 21.4184 17.7258 20.984 17.3931 20.7808V20.7808Z" fill="white"/>
<path d="M23.3431 17.9637C23.745 17.6837 24.4898 17.3102 25.2664 17.1789C25.6508 17.114 25.9098 16.7497 25.8449 16.3653C25.7799 15.9809 25.4155 15.7216 25.0312 15.7869C24.0253 15.9569 23.0828 16.4244 22.5361 16.8053C22.2162 17.0282 22.1376 17.4682 22.3604 17.788C22.5834 18.1081 23.0235 18.1864 23.3431 17.9637V17.9637Z" fill="white"/>
<path d="M25.0313 19.7757C24.0937 19.9341 23.1099 20.4731 22.6069 20.7803C22.2742 20.9835 22.1692 21.418 22.3724 21.7507C22.5756 22.0833 23.01 22.1883 23.3427 21.9852C23.6778 21.7805 24.5361 21.2912 25.2665 21.1677C25.6509 21.1028 25.9099 20.7385 25.845 20.3541C25.78 19.9697 25.4156 19.7103 25.0313 19.7757V19.7757Z" fill="white"/>
</g>
</g>
<defs>
<filter id="filter0_b_556_6630" x="-15" y="-15" width="70" height="70" filterUnits="userSpaceOnUse" color-interpolation-filters="sRGB">
<feFlood flood-opacity="0" result="BackgroundImageFix"/>
<feGaussianBlur in="BackgroundImage" stdDeviation="7.5"/>
<feComposite in2="SourceAlpha" operator="in" result="effect1_backgroundBlur_556_6630"/>
<feBlend mode="normal" in="SourceGraphic" in2="effect1_backgroundBlur_556_6630" result="shape"/>
</filter>
<clipPath id="clip0_556_6630">
<rect width="24" height="24" fill="white" transform="translate(8 8)"/>
</clipPath>
</defs>
</svg>
