<svg width="24" height="20" viewBox="0 0 24 20" fill="none" xmlns="http://www.w3.org/2000/svg">
<path d="M14.5673 17.6779C14.3915 17.7191 14.2164 17.7624 14.0422 17.808C14.1848 17.6908 14.3285 17.5778 14.4732 17.4691L14.5673 17.6779ZM22.7501 16.7747C22.7097 16.777 22.669 16.7793 22.6278 16.7815L22.6234 16.6222H22.7501V16.7747ZM11.2685 18.9833L11.4559 19.1546V19.6061C11.3251 19.5539 11.1929 19.5035 11.0594 19.455C11.1033 19.2485 11.1889 19.1035 11.232 19.0367C11.244 19.018 11.2563 19.0002 11.2685 18.9833ZM11.8795 19.7624L12 19.6522L12.1205 19.7624C12.0537 19.7734 11.9705 19.7778 11.8795 19.7624ZM9.52675 17.4691C9.67145 17.5778 9.81521 17.6907 9.95782 17.808C9.78362 17.7624 9.60847 17.719 9.43264 17.6778L9.52675 17.4691Z" fill="white" stroke="white" stroke-width="2.5"/>
</svg>
