<svg width="24" height="24" viewBox="0 0 24 24" fill="none" xmlns="http://www.w3.org/2000/svg">
<g clip-path="url(#clip0_803_2341)">
<path d="M14.5673 19.6779C14.3915 19.7191 14.2164 19.7624 14.0422 19.808C14.1848 19.6908 14.3285 19.5778 14.4732 19.4691L14.5673 19.6779ZM22.7501 18.7747C22.7097 18.777 22.669 18.7793 22.6278 18.7815L22.6234 18.6222H22.7501V18.7747ZM11.2685 20.9833L11.4559 21.1546V21.6061C11.3251 21.5539 11.1929 21.5035 11.0594 21.455C11.1033 21.2485 11.1889 21.1035 11.232 21.0367C11.244 21.018 11.2563 21.0002 11.2685 20.9833ZM11.8795 21.7624L12 21.6522L12.1205 21.7624C12.0537 21.7734 11.9705 21.7778 11.8795 21.7624ZM9.52675 19.4691C9.67145 19.5778 9.81521 19.6907 9.95782 19.808C9.78362 19.7624 9.60847 19.719 9.43264 19.6778L9.52675 19.4691Z" fill="white" stroke="white" stroke-width="2.5"/>
<path d="M9.46379 8.8053C8.91706 8.42441 7.97452 7.95688 6.96864 7.7869C6.58441 7.72168 6.21998 7.98092 6.15499 8.3653C6.09005 8.74968 6.34902 9.11396 6.73344 9.1789C7.51005 9.31015 8.2549 9.68366 8.65678 9.96366C8.97654 10.1864 9.41654 10.1079 9.63946 9.78799C9.86228 9.46813 9.78365 9.02813 9.46379 8.8053Z" fill="white"/>
<path d="M9.39311 12.7808C8.8901 12.4736 7.90624 11.9346 6.96864 11.7761C6.58441 11.711 6.21998 11.9701 6.15499 12.3545C6.09005 12.739 6.34902 13.1032 6.73344 13.1681C7.46384 13.2916 8.32215 13.7809 8.65725 13.9856C8.99038 14.1889 9.42464 14.0834 9.62761 13.7511C9.83081 13.4184 9.72582 12.984 9.39311 12.7808Z" fill="white"/>
<path d="M15.3431 9.96369C15.745 9.68369 16.4898 9.31018 17.2664 9.17894C17.6508 9.114 17.9098 8.74971 17.8449 8.36534C17.7799 7.98091 17.4155 7.72157 17.0312 7.78694C16.0253 7.95687 15.0828 8.42444 14.5361 8.80534C14.2162 9.02816 14.1376 9.46816 14.3604 9.78802C14.5834 10.1081 15.0235 10.1864 15.3431 9.96369Z" fill="white"/>
<path d="M17.0313 11.7757C16.0937 11.9341 15.1099 12.4731 14.6069 12.7803C14.2742 12.9835 14.1692 13.418 14.3724 13.7507C14.5756 14.0833 15.01 14.1883 15.3427 13.9852C15.6778 13.7805 16.5361 13.2912 17.2665 13.1677C17.6509 13.1028 17.9099 12.7385 17.845 12.3541C17.78 11.9697 17.4156 11.7103 17.0313 11.7757Z" fill="white"/>
</g>
<defs>
<clipPath id="clip0_803_2341">
<rect width="24" height="24" fill="white"/>
</clipPath>
</defs>
</svg>
