<svg width="40" height="40" viewBox="0 0 40 40" fill="none" xmlns="http://www.w3.org/2000/svg">
<g filter="url(#filter0_b_556_6623)">
<rect width="40" height="40" rx="12" fill="#3D3DD8"/>
<mask id="path-2-inside-1_556_6623" fill="white">
<path d="M27.6637 24.9219C27.3371 23.3191 25.9166 22.1094 24.2188 22.1094H22.1095V21.5548C23.5008 20.7892 24.4326 19.3371 24.7646 17.7722C25.664 17.5311 26.3282 16.7089 26.3282 15.7344C26.3282 14.8177 25.7403 14.0362 24.922 13.7459V12.9219C24.922 10.208 22.714 8 20.0001 8C17.2862 8 15.0782 10.208 15.0782 12.9219V13.7459C14.2598 14.0362 13.672 14.8177 13.672 15.7344C13.672 16.7089 14.3361 17.5311 15.2356 17.7722C15.5678 19.3385 16.5004 20.7898 17.8907 21.5548V22.1094H15.7813C14.0835 22.1094 12.6631 23.3191 12.3364 24.9219H10.6638L12.4187 32H27.5816L29.3364 24.9219H27.6637ZM20.0001 9.40625C21.9386 9.40625 23.5157 10.9834 23.5157 12.9219V13.625C22.6385 13.625 21.8437 13.073 21.538 12.2513L20.879 10.4806L20.22 12.2512C19.9143 13.073 19.1194 13.625 18.2423 13.625H16.4845V12.9219C16.4845 10.9834 18.0616 9.40625 20.0001 9.40625ZM16.5399 17.0543L16.4636 16.4375H15.7813C15.3936 16.4375 15.0782 16.1221 15.0782 15.7344C15.0782 15.3467 15.3936 15.0312 15.7813 15.0312H18.2423C19.2662 15.0312 20.2227 14.5798 20.879 13.8386C21.5353 14.5798 22.4918 15.0312 23.5157 15.0312H24.2188C24.6065 15.0312 24.922 15.3467 24.922 15.7344C24.922 16.1221 24.6065 16.4375 24.2188 16.4375H23.5365L23.4602 17.0543C23.0907 20.0425 20.8062 20.5642 20.7032 20.6457V22.1094H19.297V20.6457C19.2493 20.608 16.9008 19.9729 16.5399 17.0543ZM15.7813 23.5156H24.2188C25.1355 23.5156 25.917 24.1035 26.2073 24.9219H13.7929C14.0831 24.1035 14.8647 23.5156 15.7813 23.5156ZM26.4814 30.5938H13.5188L12.4613 26.3281H27.5388L26.4814 30.5938Z"/>
</mask>
<path d="M27.6637 24.9219C27.3371 23.3191 25.9166 22.1094 24.2188 22.1094H22.1095V21.5548C23.5008 20.7892 24.4326 19.3371 24.7646 17.7722C25.664 17.5311 26.3282 16.7089 26.3282 15.7344C26.3282 14.8177 25.7403 14.0362 24.922 13.7459V12.9219C24.922 10.208 22.714 8 20.0001 8C17.2862 8 15.0782 10.208 15.0782 12.9219V13.7459C14.2598 14.0362 13.672 14.8177 13.672 15.7344C13.672 16.7089 14.3361 17.5311 15.2356 17.7722C15.5678 19.3385 16.5004 20.7898 17.8907 21.5548V22.1094H15.7813C14.0835 22.1094 12.6631 23.3191 12.3364 24.9219H10.6638L12.4187 32H27.5816L29.3364 24.9219H27.6637ZM20.0001 9.40625C21.9386 9.40625 23.5157 10.9834 23.5157 12.9219V13.625C22.6385 13.625 21.8437 13.073 21.538 12.2513L20.879 10.4806L20.22 12.2512C19.9143 13.073 19.1194 13.625 18.2423 13.625H16.4845V12.9219C16.4845 10.9834 18.0616 9.40625 20.0001 9.40625ZM16.5399 17.0543L16.4636 16.4375H15.7813C15.3936 16.4375 15.0782 16.1221 15.0782 15.7344C15.0782 15.3467 15.3936 15.0312 15.7813 15.0312H18.2423C19.2662 15.0312 20.2227 14.5798 20.879 13.8386C21.5353 14.5798 22.4918 15.0312 23.5157 15.0312H24.2188C24.6065 15.0312 24.922 15.3467 24.922 15.7344C24.922 16.1221 24.6065 16.4375 24.2188 16.4375H23.5365L23.4602 17.0543C23.0907 20.0425 20.8062 20.5642 20.7032 20.6457V22.1094H19.297V20.6457C19.2493 20.608 16.9008 19.9729 16.5399 17.0543ZM15.7813 23.5156H24.2188C25.1355 23.5156 25.917 24.1035 26.2073 24.9219H13.7929C14.0831 24.1035 14.8647 23.5156 15.7813 23.5156ZM26.4814 30.5938H13.5188L12.4613 26.3281H27.5388L26.4814 30.5938Z" fill="#1A1A1A"/>
<path d="M27.6637 24.9219L25.2141 25.4211L25.6218 27.4219H27.6637V24.9219ZM22.1095 22.1094H19.6095V24.6094H22.1095V22.1094ZM22.1095 21.5548L20.9043 19.3645L19.6095 20.0769V21.5548H22.1095ZM24.7646 17.7722L24.1174 15.3574L22.637 15.7541L22.319 17.2535L24.7646 17.7722ZM24.922 13.7459H22.422V15.5119L24.0863 16.1021L24.922 13.7459ZM15.0782 13.7459L15.9139 16.1021L17.5782 15.5119V13.7459H15.0782ZM15.2356 17.7722L17.6812 17.2535L17.3632 15.7541L15.8827 15.3574L15.2356 17.7722ZM17.8907 21.5548H20.3907V20.0769L19.0959 19.3645L17.8907 21.5548ZM17.8907 22.1094V24.6094H20.3907V22.1094H17.8907ZM12.3364 24.9219V27.4219H14.3783L14.7861 25.4212L12.3364 24.9219ZM10.6638 24.9219V22.4219H7.46836L8.23731 25.5235L10.6638 24.9219ZM12.4187 32L9.99212 32.6016L10.4628 34.5H12.4187V32ZM27.5816 32V34.5H29.5375L30.0081 32.6016L27.5816 32ZM29.3364 24.9219L31.7629 25.5234L32.5318 22.4219H29.3364V24.9219ZM23.5157 13.625V16.125H26.0157V13.625H23.5157ZM21.538 12.2513L23.881 11.3794L23.881 11.3793L21.538 12.2513ZM20.879 10.4806L23.222 9.60862L20.879 3.31285L18.536 9.6086L20.879 10.4806ZM20.22 12.2512L17.877 11.3793L17.877 11.3794L20.22 12.2512ZM16.4845 13.625H13.9845V16.125H16.4845V13.625ZM16.5399 17.0543L19.021 16.7475L19.021 16.7474L16.5399 17.0543ZM16.4636 16.4375L18.9447 16.1305L18.6734 13.9375H16.4636V16.4375ZM20.879 13.8386L22.7507 12.1813L20.879 10.0675L19.0073 12.1813L20.879 13.8386ZM23.5365 16.4375V13.9375H21.3265L21.0554 16.1307L23.5365 16.4375ZM23.4602 17.0543L25.9413 17.3611L25.9413 17.3611L23.4602 17.0543ZM20.7032 20.6457L19.1522 18.685L18.2032 19.4357V20.6457H20.7032ZM20.7032 22.1094V24.6094H23.2032V22.1094H20.7032ZM19.297 22.1094H16.797V24.6094H19.297V22.1094ZM19.297 20.6457H21.797V19.436L20.8483 18.6853L19.297 20.6457ZM26.2073 24.9219V27.4219H29.7466L28.5635 24.0862L26.2073 24.9219ZM13.7929 24.9219L11.4367 24.0862L10.2536 27.4219H13.7929V24.9219ZM26.4814 30.5938V33.0938H28.4373L28.908 31.1953L26.4814 30.5938ZM13.5188 30.5938L11.0923 31.1953L11.5629 33.0938H13.5188V30.5938ZM12.4613 26.3281V23.8281H9.26578L10.0347 26.9297L12.4613 26.3281ZM27.5388 26.3281L29.9654 26.9296L30.7342 23.8281H27.5388V26.3281ZM30.1134 24.4227C29.5546 21.6807 27.1304 19.6094 24.2188 19.6094V24.6094C24.7029 24.6094 25.1196 24.9575 25.2141 25.4211L30.1134 24.4227ZM24.2188 19.6094H22.1095V24.6094H24.2188V19.6094ZM24.6095 22.1094V21.5548H19.6095V22.1094H24.6095ZM23.3146 23.7451C25.4588 22.5654 26.7572 20.4262 27.2101 18.2909L22.319 17.2535C22.108 18.248 21.5429 19.0131 20.9043 19.3645L23.3146 23.7451ZM25.4117 20.187C27.3743 19.661 28.8282 17.8708 28.8282 15.7344H23.8282C23.8282 15.5469 23.9537 15.4013 24.1174 15.3574L25.4117 20.187ZM28.8282 15.7344C28.8282 13.7228 27.539 12.0215 25.7576 11.3897L24.0863 16.1021C23.9417 16.0509 23.8282 15.9127 23.8282 15.7344H28.8282ZM27.422 13.7459V12.9219H22.422V13.7459H27.422ZM27.422 12.9219C27.422 8.82724 24.0947 5.5 20.0001 5.5V10.5C21.3333 10.5 22.422 11.5887 22.422 12.9219H27.422ZM20.0001 5.5C15.9054 5.5 12.5782 8.82724 12.5782 12.9219H17.5782C17.5782 11.5887 18.6669 10.5 20.0001 10.5V5.5ZM12.5782 12.9219V13.7459H17.5782V12.9219H12.5782ZM14.2426 11.3897C12.4612 12.0215 11.172 13.7228 11.172 15.7344H16.172C16.172 15.9127 16.0584 16.0509 15.9139 16.1021L14.2426 11.3897ZM11.172 15.7344C11.172 17.8708 12.6257 19.661 14.5885 20.187L15.8827 15.3574C16.0465 15.4013 16.172 15.547 16.172 15.7344H11.172ZM12.79 18.2909C13.2433 20.4283 14.543 22.5663 16.6855 23.7451L19.0959 19.3645C18.4579 19.0134 17.8922 18.2486 17.6812 17.2535L12.79 18.2909ZM15.3907 21.5548V22.1094H20.3907V21.5548H15.3907ZM17.8907 19.6094H15.7813V24.6094H17.8907V19.6094ZM15.7813 19.6094C12.8697 19.6094 10.4456 21.6807 9.88681 24.4226L14.7861 25.4212C14.8806 24.9575 15.2973 24.6094 15.7813 24.6094V19.6094ZM12.3364 22.4219H10.6638V27.4219H12.3364V22.4219ZM8.23731 25.5235L9.99212 32.6016L14.8452 31.3984L13.0904 24.3203L8.23731 25.5235ZM12.4187 34.5H27.5816V29.5H12.4187V34.5ZM30.0081 32.6016L31.7629 25.5234L26.9098 24.3203L25.1551 31.3984L30.0081 32.6016ZM29.3364 22.4219H27.6637V27.4219H29.3364V22.4219ZM20.0001 11.9062C20.5579 11.9062 21.0157 12.3641 21.0157 12.9219H26.0157C26.0157 9.60265 23.3193 6.90625 20.0001 6.90625V11.9062ZM21.0157 12.9219V13.625H26.0157V12.9219H21.0157ZM23.5157 11.125C23.6822 11.125 23.8222 11.2215 23.881 11.3794L19.1949 13.1232C19.8652 14.9244 21.5949 16.125 23.5157 16.125V11.125ZM23.881 11.3793L23.222 9.60862L18.536 11.3525L19.1949 13.1232L23.881 11.3793ZM18.536 9.6086L17.877 11.3793L22.563 13.1232L23.222 11.3526L18.536 9.6086ZM17.877 11.3794C17.9357 11.2215 18.0758 11.125 18.2423 11.125V16.125C20.1631 16.125 21.8928 14.9244 22.5631 13.1231L17.877 11.3794ZM18.2423 11.125H16.4845V16.125H18.2423V11.125ZM18.9845 13.625V12.9219H13.9845V13.625H18.9845ZM18.9845 12.9219C18.9845 12.3641 19.4423 11.9062 20.0001 11.9062V6.90625C16.6809 6.90625 13.9845 9.60265 13.9845 12.9219H18.9845ZM19.021 16.7474L18.9447 16.1305L13.9825 16.7445L14.0588 17.3613L19.021 16.7474ZM16.4636 13.9375H15.7813V18.9375H16.4636V13.9375ZM15.7813 13.9375C16.7743 13.9375 17.5782 14.7414 17.5782 15.7344H12.5782C12.5782 17.5028 14.0129 18.9375 15.7813 18.9375V13.9375ZM17.5782 15.7344C17.5782 16.7274 16.7743 17.5312 15.7813 17.5312V12.5312C14.0129 12.5312 12.5782 13.966 12.5782 15.7344H17.5782ZM15.7813 17.5312H18.2423V12.5312H15.7813V17.5312ZM18.2423 17.5312C20.004 17.5312 21.6347 16.7562 22.7507 15.4959L19.0073 12.1813C18.8107 12.4033 18.5283 12.5312 18.2423 12.5312V17.5312ZM19.0073 15.4959C20.1233 16.7562 21.754 17.5312 23.5157 17.5312V12.5312C23.2297 12.5312 22.9473 12.4033 22.7507 12.1813L19.0073 15.4959ZM23.5157 17.5312H24.2188V12.5312H23.5157V17.5312ZM24.2188 17.5312C23.2258 17.5312 22.422 16.7274 22.422 15.7344H27.422C27.422 13.966 25.9872 12.5312 24.2188 12.5312V17.5312ZM22.422 15.7344C22.422 14.7414 23.2258 13.9375 24.2188 13.9375V18.9375C25.9872 18.9375 27.422 17.5028 27.422 15.7344H22.422ZM24.2188 13.9375H23.5365V18.9375H24.2188V13.9375ZM21.0554 16.1307L20.9791 16.7476L25.9413 17.3611L26.0176 16.7443L21.0554 16.1307ZM20.9791 16.7475C20.8789 17.5579 20.5685 17.8666 20.4014 18.0029C20.2925 18.0918 20.1816 18.1531 20.0869 18.1963C20.04 18.2177 19.9972 18.2348 19.9441 18.2551C19.9338 18.259 19.8643 18.2852 19.8156 18.3048C19.7886 18.3156 19.7263 18.3409 19.6529 18.3755C19.6259 18.3882 19.3961 18.492 19.1522 18.685L22.2543 22.6064C22.0167 22.7943 21.7977 22.8921 21.7854 22.8979C21.7267 22.9256 21.6831 22.9429 21.6786 22.9447C21.6748 22.9463 21.6653 22.95 21.7281 22.926C21.821 22.8905 21.9765 22.8301 22.164 22.7445C22.5382 22.5736 23.0408 22.3024 23.5621 21.8771C24.6554 20.9852 25.672 19.539 25.9413 17.3611L20.9791 16.7475ZM18.2032 20.6457V22.1094H23.2032V20.6457H18.2032ZM20.7032 19.6094H19.297V24.6094H20.7032V19.6094ZM21.797 22.1094V20.6457H16.797V22.1094H21.797ZM20.8483 18.6853C20.6101 18.4967 20.3861 18.395 20.3733 18.3889C20.3084 18.3578 20.2554 18.3359 20.2333 18.3268C20.187 18.3079 20.1455 18.2925 20.1369 18.2893C20.0987 18.275 20.0964 18.2743 20.0756 18.2664C20.0486 18.256 20.0132 18.2417 19.9695 18.2209C19.8786 18.1777 19.7553 18.1082 19.6301 18.0046C19.4196 17.8303 19.1136 17.4962 19.021 16.7475L14.0588 17.3611C14.3271 19.531 15.3759 20.9737 16.4417 21.8561C16.9547 22.2808 17.45 22.5595 17.8241 22.7372C18.013 22.8269 18.1716 22.8912 18.2836 22.9342C18.3324 22.9529 18.3858 22.9726 18.3874 22.9732C18.3987 22.9774 18.3731 22.9681 18.3385 22.9539C18.3222 22.9472 18.274 22.9274 18.2128 22.898C18.2037 22.8937 17.9824 22.7935 17.7456 22.6061L20.8483 18.6853ZM15.7813 26.0156H24.2188V21.0156H15.7813V26.0156ZM24.2188 26.0156C24.0405 26.0156 23.9023 25.9021 23.8511 25.7576L28.5635 24.0862C27.9317 22.305 26.2305 21.0156 24.2188 21.0156V26.0156ZM26.2073 22.4219H13.7929V27.4219H26.2073V22.4219ZM16.1491 25.7576C16.0978 25.9021 15.9597 26.0156 15.7813 26.0156V21.0156C13.7697 21.0156 12.0685 22.305 11.4367 24.0862L16.1491 25.7576ZM26.4814 28.0938H13.5188V33.0938H26.4814V28.0938ZM15.9454 29.9922L14.8878 25.7265L10.0347 26.9297L11.0923 31.1953L15.9454 29.9922ZM12.4613 28.8281H27.5388V23.8281H12.4613V28.8281ZM25.1122 25.7266L24.0548 29.9922L28.908 31.1953L29.9654 26.9296L25.1122 25.7266Z" fill="white" mask="url(#path-2-inside-1_556_6623)"/>
<mask id="path-4-inside-2_556_6623" fill="white">
<path d="M19.2969 27.7344H20.7031V29.1406H19.2969V27.7344Z"/>
</mask>
<path d="M19.2969 27.7344H20.7031V29.1406H19.2969V27.7344Z" fill="#1A1A1A"/>
<path d="M19.2969 27.7344V25.2344H16.7969V27.7344H19.2969ZM20.7031 27.7344H23.2031V25.2344H20.7031V27.7344ZM20.7031 29.1406V31.6406H23.2031V29.1406H20.7031ZM19.2969 29.1406H16.7969V31.6406H19.2969V29.1406ZM19.2969 30.2344H20.7031V25.2344H19.2969V30.2344ZM18.2031 27.7344V29.1406H23.2031V27.7344H18.2031ZM20.7031 26.6406H19.2969V31.6406H20.7031V26.6406ZM21.7969 29.1406V27.7344H16.7969V29.1406H21.7969Z" fill="white" mask="url(#path-4-inside-2_556_6623)"/>
</g>
<defs>
<filter id="filter0_b_556_6623" x="-15" y="-15" width="70" height="70" filterUnits="userSpaceOnUse" color-interpolation-filters="sRGB">
<feFlood flood-opacity="0" result="BackgroundImageFix"/>
<feGaussianBlur in="BackgroundImage" stdDeviation="7.5"/>
<feComposite in2="SourceAlpha" operator="in" result="effect1_backgroundBlur_556_6623"/>
<feBlend mode="normal" in="SourceGraphic" in2="effect1_backgroundBlur_556_6623" result="shape"/>
</filter>
</defs>
</svg>
