<svg width="20" height="24" viewBox="0 0 20 24" fill="none" xmlns="http://www.w3.org/2000/svg">
<mask id="path-1-inside-1_803_2336" fill="white">
<path d="M17.6637 16.9219C17.3371 15.3191 15.9166 14.1094 14.2188 14.1094H12.1094V13.5548C13.5008 12.7892 14.4326 11.3371 14.7645 9.77217C15.664 9.53114 16.3282 8.70886 16.3282 7.73438C16.3282 6.81773 15.7403 6.03619 14.9219 5.74594V4.92188C14.9219 2.20795 12.714 0 10.0001 0C7.28613 0 5.07818 2.20795 5.07818 4.92188V5.74594C4.25979 6.03619 3.67193 6.81773 3.67193 7.73438C3.67193 8.70886 4.3361 9.53114 5.23554 9.77217C5.56774 11.3385 6.50041 12.7898 7.89068 13.5548V14.1094H5.7813C4.08349 14.1094 2.66308 15.3191 2.33641 16.9219H0.663818L2.41863 24H17.5816L19.3363 16.9219H17.6637ZM10.0001 1.40625C11.9386 1.40625 13.5157 2.98336 13.5157 4.92188V5.625C12.6385 5.625 11.8437 5.07295 11.5379 4.25128L10.879 2.48058L10.22 4.25123C9.91422 5.07295 9.11941 5.625 8.24224 5.625H6.48443V4.92188C6.48443 2.98336 8.06154 1.40625 10.0001 1.40625ZM6.53988 9.05433L6.46357 8.4375H5.7813C5.3936 8.4375 5.07818 8.12208 5.07818 7.73438C5.07818 7.34667 5.3936 7.03125 5.7813 7.03125H8.24224C9.26613 7.03125 10.2227 6.5798 10.879 5.83861C11.5353 6.5798 12.4918 7.03125 13.5157 7.03125H14.2188C14.6065 7.03125 14.9219 7.34667 14.9219 7.73438C14.9219 8.12208 14.6065 8.4375 14.2188 8.4375H13.5364L13.4602 9.05433C13.0907 12.0425 10.8062 12.5642 10.7032 12.6457V14.1094H9.29693V12.6457C9.2493 12.608 6.90077 11.9729 6.53988 9.05433ZM5.7813 15.5156H14.2188C15.1354 15.5156 15.917 16.1035 16.2072 16.9219H3.79287C4.08312 16.1035 4.86466 15.5156 5.7813 15.5156ZM16.4814 22.5938H3.51879L2.46124 18.3281H17.5388L16.4814 22.5938Z"/>
</mask>
<path d="M17.6637 16.9219C17.3371 15.3191 15.9166 14.1094 14.2188 14.1094H12.1094V13.5548C13.5008 12.7892 14.4326 11.3371 14.7645 9.77217C15.664 9.53114 16.3282 8.70886 16.3282 7.73438C16.3282 6.81773 15.7403 6.03619 14.9219 5.74594V4.92188C14.9219 2.20795 12.714 0 10.0001 0C7.28613 0 5.07818 2.20795 5.07818 4.92188V5.74594C4.25979 6.03619 3.67193 6.81773 3.67193 7.73438C3.67193 8.70886 4.3361 9.53114 5.23554 9.77217C5.56774 11.3385 6.50041 12.7898 7.89068 13.5548V14.1094H5.7813C4.08349 14.1094 2.66308 15.3191 2.33641 16.9219H0.663818L2.41863 24H17.5816L19.3363 16.9219H17.6637ZM10.0001 1.40625C11.9386 1.40625 13.5157 2.98336 13.5157 4.92188V5.625C12.6385 5.625 11.8437 5.07295 11.5379 4.25128L10.879 2.48058L10.22 4.25123C9.91422 5.07295 9.11941 5.625 8.24224 5.625H6.48443V4.92188C6.48443 2.98336 8.06154 1.40625 10.0001 1.40625ZM6.53988 9.05433L6.46357 8.4375H5.7813C5.3936 8.4375 5.07818 8.12208 5.07818 7.73438C5.07818 7.34667 5.3936 7.03125 5.7813 7.03125H8.24224C9.26613 7.03125 10.2227 6.5798 10.879 5.83861C11.5353 6.5798 12.4918 7.03125 13.5157 7.03125H14.2188C14.6065 7.03125 14.9219 7.34667 14.9219 7.73438C14.9219 8.12208 14.6065 8.4375 14.2188 8.4375H13.5364L13.4602 9.05433C13.0907 12.0425 10.8062 12.5642 10.7032 12.6457V14.1094H9.29693V12.6457C9.2493 12.608 6.90077 11.9729 6.53988 9.05433ZM5.7813 15.5156H14.2188C15.1354 15.5156 15.917 16.1035 16.2072 16.9219H3.79287C4.08312 16.1035 4.86466 15.5156 5.7813 15.5156ZM16.4814 22.5938H3.51879L2.46124 18.3281H17.5388L16.4814 22.5938Z" fill="#1A1A1A"/>
<path d="M17.6637 16.9219L15.214 17.4211L15.6218 19.4219H17.6637V16.9219ZM12.1094 14.1094H9.60943V16.6094H12.1094V14.1094ZM12.1094 13.5548L10.9043 11.3645L9.60943 12.0769V13.5548H12.1094ZM14.7645 9.77217L14.1174 7.35738L12.6369 7.75411L12.3189 9.25346L14.7645 9.77217ZM14.9219 5.74594H12.4219V7.51186L14.0863 8.10214L14.9219 5.74594ZM5.07818 5.74594L5.91383 8.10214L7.57818 7.51186V5.74594H5.07818ZM5.23554 9.77217L7.68113 9.25347L7.36313 7.75411L5.88265 7.35738L5.23554 9.77217ZM7.89068 13.5548H10.3907V12.0769L9.09585 11.3645L7.89068 13.5548ZM7.89068 14.1094V16.6094H10.3907V14.1094H7.89068ZM2.33641 16.9219V19.4219H4.37826L4.78605 17.4212L2.33641 16.9219ZM0.663818 16.9219V14.4219H-2.53167L-1.76272 17.5235L0.663818 16.9219ZM2.41863 24L-0.00790799 24.6016L0.462747 26.5H2.41863V24ZM17.5816 24V26.5H19.5375L20.0081 24.6016L17.5816 24ZM19.3363 16.9219L21.7629 17.5234L22.5318 14.4219H19.3363V16.9219ZM13.5157 5.625V8.125H16.0157V5.625H13.5157ZM11.5379 4.25128L13.881 3.37938L13.8809 3.37933L11.5379 4.25128ZM10.879 2.48058L13.222 1.60862L10.879 -4.68715L8.53596 1.6086L10.879 2.48058ZM10.22 4.25123L7.87699 3.37926L7.87694 3.37938L10.22 4.25123ZM6.48443 5.625H3.98443V8.125H6.48443V5.625ZM6.53988 9.05433L9.02098 8.74753L9.02097 8.74737L6.53988 9.05433ZM6.46357 8.4375L8.94465 8.13054L8.67333 5.9375H6.46357V8.4375ZM10.879 5.83861L12.7507 4.18128L10.879 2.06748L9.00726 4.18128L10.879 5.83861ZM13.5364 8.4375V5.9375H11.3265L11.0553 8.13073L13.5364 8.4375ZM13.4602 9.05433L15.9413 9.36114L15.9413 9.36109L13.4602 9.05433ZM10.7032 12.6457L9.15213 10.685L8.20318 11.4357V12.6457H10.7032ZM10.7032 14.1094V16.6094H13.2032V14.1094H10.7032ZM9.29693 14.1094H6.79693V16.6094H9.29693V14.1094ZM9.29693 12.6457H11.7969V11.436L10.8483 10.6853L9.29693 12.6457ZM16.2072 16.9219V19.4219H19.7465L18.5634 16.0862L16.2072 16.9219ZM3.79287 16.9219L1.43668 16.0862L0.253576 19.4219H3.79287V16.9219ZM16.4814 22.5938V25.0938H18.4373L18.9079 23.1953L16.4814 22.5938ZM3.51879 22.5938L1.09225 23.1953L1.56291 25.0938H3.51879V22.5938ZM2.46124 18.3281V15.8281H-0.734254L0.0347027 18.9297L2.46124 18.3281ZM17.5388 18.3281L19.9653 18.9296L20.7342 15.8281H17.5388V18.3281ZM20.1133 16.4227C19.5546 13.6807 17.1304 11.6094 14.2188 11.6094V16.6094C14.7029 16.6094 15.1196 16.9575 15.214 17.4211L20.1133 16.4227ZM14.2188 11.6094H12.1094V16.6094H14.2188V11.6094ZM14.6094 14.1094V13.5548H9.60943V14.1094H14.6094ZM13.3146 15.7451C15.4588 14.5654 16.7572 12.4262 17.2101 10.2909L12.3189 9.25346C12.108 10.248 11.5428 11.0131 10.9043 11.3645L13.3146 15.7451ZM15.4116 12.187C17.3743 11.661 18.8282 9.87084 18.8282 7.73438H13.8282C13.8282 7.54688 13.9537 7.40126 14.1174 7.35738L15.4116 12.187ZM18.8282 7.73438C18.8282 5.72281 17.5389 4.02151 15.7576 3.38974L14.0863 8.10214C13.9417 8.05087 13.8282 7.91266 13.8282 7.73438H18.8282ZM17.4219 5.74594V4.92188H12.4219V5.74594H17.4219ZM17.4219 4.92188C17.4219 0.827241 14.0947 -2.5 10.0001 -2.5V2.5C11.3333 2.5 12.4219 3.58867 12.4219 4.92188H17.4219ZM10.0001 -2.5C5.90542 -2.5 2.57818 0.827241 2.57818 4.92188H7.57818C7.57818 3.58867 8.66684 2.5 10.0001 2.5V-2.5ZM2.57818 4.92188V5.74594H7.57818V4.92188H2.57818ZM4.24253 3.38974C2.46118 4.02151 1.17193 5.72281 1.17193 7.73438H6.17193C6.17193 7.91266 6.05839 8.05087 5.91383 8.10214L4.24253 3.38974ZM1.17193 7.73438C1.17193 9.87076 2.62571 11.661 4.58842 12.187L5.88265 7.35738C6.04649 7.40128 6.17193 7.54696 6.17193 7.73438H1.17193ZM2.78994 10.2909C3.24328 12.4283 4.543 14.5663 6.68551 15.7451L9.09585 11.3645C8.45783 11.0134 7.8922 10.2486 7.68113 9.25347L2.78994 10.2909ZM5.39068 13.5548V14.1094H10.3907V13.5548H5.39068ZM7.89068 11.6094H5.7813V16.6094H7.89068V11.6094ZM5.7813 11.6094C2.86968 11.6094 0.445618 13.6807 -0.113224 16.4226L4.78605 17.4212C4.88055 16.9575 5.2973 16.6094 5.7813 16.6094V11.6094ZM2.33641 14.4219H0.663818V19.4219H2.33641V14.4219ZM-1.76272 17.5235L-0.00790799 24.6016L4.84517 23.3984L3.09036 16.3203L-1.76272 17.5235ZM2.41863 26.5H17.5816V21.5H2.41863V26.5ZM20.0081 24.6016L21.7629 17.5234L16.9098 16.3203L15.155 23.3984L20.0081 24.6016ZM19.3363 14.4219H17.6637V19.4219H19.3363V14.4219ZM10.0001 3.90625C10.5579 3.90625 11.0157 4.36407 11.0157 4.92188H16.0157C16.0157 1.60265 13.3193 -1.09375 10.0001 -1.09375V3.90625ZM11.0157 4.92188V5.625H16.0157V4.92188H11.0157ZM13.5157 3.125C13.6821 3.125 13.8222 3.22147 13.881 3.37938L9.1949 5.12318C9.86519 6.92444 11.5949 8.125 13.5157 8.125V3.125ZM13.8809 3.37933L13.222 1.60862L8.53595 3.35253L9.19492 5.12324L13.8809 3.37933ZM8.53596 1.6086L7.87699 3.37926L12.563 5.12321L13.222 3.35255L8.53596 1.6086ZM7.87694 3.37938C7.93569 3.2215 8.07576 3.125 8.24224 3.125V8.125C10.1631 8.125 11.8928 6.92441 12.563 5.12309L7.87694 3.37938ZM8.24224 3.125H6.48443V8.125H8.24224V3.125ZM8.98443 5.625V4.92188H3.98443V5.625H8.98443ZM8.98443 4.92188C8.98443 4.36407 9.44225 3.90625 10.0001 3.90625V-1.09375C6.68083 -1.09375 3.98443 1.60265 3.98443 4.92188H8.98443ZM9.02097 8.74737L8.94465 8.13054L3.98248 8.74446L4.0588 9.36128L9.02097 8.74737ZM6.46357 5.9375H5.7813V10.9375H6.46357V5.9375ZM5.7813 5.9375C6.77431 5.9375 7.57818 6.74137 7.57818 7.73438H2.57818C2.57818 9.50279 4.01289 10.9375 5.7813 10.9375V5.9375ZM7.57818 7.73438C7.57818 8.72738 6.77431 9.53125 5.7813 9.53125V4.53125C4.01289 4.53125 2.57818 5.96596 2.57818 7.73438H7.57818ZM5.7813 9.53125H8.24224V4.53125H5.7813V9.53125ZM8.24224 9.53125C10.004 9.53125 11.6347 8.75625 12.7507 7.49594L9.00726 4.18128C8.81063 4.40335 8.52829 4.53125 8.24224 4.53125V9.53125ZM9.00726 7.49594C10.1232 8.75625 11.7539 9.53125 13.5157 9.53125V4.53125C13.2296 4.53125 12.9473 4.40335 12.7507 4.18128L9.00726 7.49594ZM13.5157 9.53125H14.2188V4.53125H13.5157V9.53125ZM14.2188 9.53125C13.2258 9.53125 12.4219 8.72738 12.4219 7.73438H17.4219C17.4219 5.96596 15.9872 4.53125 14.2188 4.53125V9.53125ZM12.4219 7.73438C12.4219 6.74137 13.2258 5.9375 14.2188 5.9375V10.9375C15.9872 10.9375 17.4219 9.50279 17.4219 7.73438H12.4219ZM14.2188 5.9375H13.5364V10.9375H14.2188V5.9375ZM11.0553 8.13073L10.9791 8.74756L15.9413 9.36109L16.0176 8.74427L11.0553 8.13073ZM10.9791 8.74752C10.8789 9.55788 10.5684 9.86662 10.4013 10.0029C10.2925 10.0918 10.1815 10.1531 10.0869 10.1963C10.04 10.2177 9.9972 10.2348 9.94405 10.2551C9.93379 10.259 9.86427 10.2852 9.81554 10.3048C9.78854 10.3156 9.72626 10.3409 9.65287 10.3755C9.62585 10.3882 9.3961 10.492 9.15213 10.685L12.2542 14.6064C12.0167 14.7943 11.7976 14.8921 11.7853 14.8979C11.7266 14.9256 11.6831 14.9429 11.6786 14.9447C11.6748 14.9463 11.6653 14.95 11.7281 14.926C11.821 14.8905 11.9765 14.8301 12.164 14.7445C12.5382 14.5736 13.0408 14.3024 13.5621 13.8771C14.6554 12.9852 15.672 11.539 15.9413 9.36114L10.9791 8.74752ZM8.20318 12.6457V14.1094H13.2032V12.6457H8.20318ZM10.7032 11.6094H9.29693V16.6094H10.7032V11.6094ZM11.7969 14.1094V12.6457H6.79693V14.1094H11.7969ZM10.8483 10.6853C10.61 10.4967 10.386 10.395 10.3733 10.3889C10.3084 10.3578 10.2554 10.3359 10.2332 10.3268C10.187 10.3079 10.1454 10.2925 10.1368 10.2893C10.0986 10.275 10.0963 10.2743 10.0756 10.2664C10.0486 10.256 10.0132 10.2417 9.96948 10.2209C9.8786 10.1777 9.75528 10.1082 9.63007 10.0046C9.41954 9.83029 9.11356 9.49622 9.02098 8.74753L4.05878 9.36113C4.32709 11.531 5.37582 12.9737 6.44169 13.8561C6.95468 14.2808 7.44997 14.5595 7.82412 14.7372C8.01293 14.8269 8.17162 14.8912 8.28356 14.9342C8.33233 14.9529 8.38573 14.9726 8.38734 14.9732C8.39862 14.9774 8.37302 14.9681 8.33847 14.9539C8.32219 14.9472 8.27399 14.9274 8.21276 14.898C8.20371 14.8937 7.98234 14.7935 7.74557 14.6061L10.8483 10.6853ZM5.7813 18.0156H14.2188V13.0156H5.7813V18.0156ZM14.2188 18.0156C14.0405 18.0156 13.9023 17.9021 13.8511 17.7576L18.5634 16.0862C17.9317 14.305 16.2304 13.0156 14.2188 13.0156V18.0156ZM16.2072 14.4219H3.79287V19.4219H16.2072V14.4219ZM6.14905 17.7576C6.0978 17.9021 5.95965 18.0156 5.7813 18.0156V13.0156C3.76967 13.0156 2.06843 14.305 1.43668 16.0862L6.14905 17.7576ZM16.4814 20.0938H3.51879V25.0938H16.4814V20.0938ZM5.94532 21.9922L4.88778 17.7265L0.0347027 18.9297L1.09225 23.1953L5.94532 21.9922ZM2.46124 20.8281H17.5388V15.8281H2.46124V20.8281ZM15.1122 17.7266L14.0548 21.9922L18.9079 23.1953L19.9653 18.9296L15.1122 17.7266Z" fill="white" mask="url(#path-1-inside-1_803_2336)"/>
</svg>
