<svg width="16" height="12" viewBox="0 0 16 12" fill="none" xmlns="http://www.w3.org/2000/svg">
<path d="M0.666687 6C0.666687 6 3.33335 0.666664 8.00002 0.666664C12.6667 0.666664 15.3334 6 15.3334 6C15.3334 6 12.6667 11.3333 8.00002 11.3333C3.33335 11.3333 0.666687 6 0.666687 6Z" fill="#767676"/>
<path d="M8.00002 8C9.10459 8 10 7.10457 10 6C10 4.89543 9.10459 4 8.00002 4C6.89545 4 6.00002 4.89543 6.00002 6C6.00002 7.10457 6.89545 8 8.00002 8Z" fill="#767676"/>
<path d="M0.666687 6C0.666687 6 3.33335 0.666664 8.00002 0.666664C12.6667 0.666664 15.3334 6 15.3334 6C15.3334 6 12.6667 11.3333 8.00002 11.3333C3.33335 11.3333 0.666687 6 0.666687 6Z" stroke="white" stroke-linecap="round" stroke-linejoin="round"/>
<path d="M8.00002 8C9.10459 8 10 7.10457 10 6C10 4.89543 9.10459 4 8.00002 4C6.89545 4 6.00002 4.89543 6.00002 6C6.00002 7.10457 6.89545 8 8.00002 8Z" stroke="white" stroke-linecap="round" stroke-linejoin="round"/>
</svg>
