<svg width="24" height="24" viewBox="0 0 24 24" fill="none" xmlns="http://www.w3.org/2000/svg">
<path d="M22.4829 11.4167C22.4869 12.9565 22.1271 14.4756 21.4329 15.85C20.6097 17.4971 19.3443 18.8824 17.7782 19.8509C16.2122 20.8193 14.4075 21.3327 12.5662 21.3334C11.0264 21.3374 9.50735 20.9776 8.13288 20.2834L1.48288 22.5L3.69955 15.85C3.0053 14.4756 2.64553 12.9565 2.64955 11.4167C2.65026 9.57542 3.16359 7.77069 4.13205 6.20467C5.10051 4.63866 6.48584 3.37319 8.13288 2.55003C9.50735 1.85579 11.0264 1.49602 12.5662 1.50003H13.1495C15.5813 1.63419 17.8781 2.66059 19.6002 4.3827C21.3223 6.10482 22.3487 8.40163 22.4829 10.8334V11.4167Z" stroke="#3D3DD8" stroke-width="2" stroke-linecap="round" stroke-linejoin="round"/>
</svg>
