<svg width="28" height="28" viewBox="0 0 28 28" fill="none" xmlns="http://www.w3.org/2000/svg">
<path d="M18.0837 8.74967L22.167 4.66634M24.5003 2.33301L22.167 4.66634L24.5003 2.33301ZM13.2887 13.5447C13.8911 14.1391 14.3699 14.8467 14.6977 15.6269C15.0255 16.4071 15.1957 17.2445 15.1985 18.0907C15.2014 18.937 15.0368 19.7755 14.7142 20.5579C14.3917 21.3402 13.9176 22.0511 13.3192 22.6495C12.7208 23.2479 12.0099 23.722 11.2275 24.0446C10.4451 24.3671 9.60665 24.5317 8.76039 24.5289C7.91413 24.526 7.07679 24.3558 6.29658 24.0281C5.51637 23.7003 4.8087 23.2214 4.21432 22.619C3.04547 21.4088 2.39871 19.7879 2.41333 18.1055C2.42795 16.4231 3.10278 14.8137 4.29248 13.624C5.48219 12.4343 7.09157 11.7595 8.774 11.7448C10.4564 11.7302 12.0773 12.377 13.2875 13.5458L13.2887 13.5447ZM13.2887 13.5447L18.0837 8.74967L13.2887 13.5447ZM18.0837 8.74967L21.5837 12.2497L25.667 8.16634L22.167 4.66634L18.0837 8.74967Z" stroke="#3D3DD8" stroke-width="2" stroke-linecap="round" stroke-linejoin="round"/>
</svg>
