<svg width="25" height="24" viewBox="0 0 25 24" fill="none" xmlns="http://www.w3.org/2000/svg">
<path d="M19.5 4H5.5C4.39543 4 3.5 4.89543 3.5 6V20C3.5 21.1046 4.39543 22 5.5 22H19.5C20.6046 22 21.5 21.1046 21.5 20V6C21.5 4.89543 20.6046 4 19.5 4Z" stroke="#1A1A1A" stroke-width="2" stroke-linecap="round" stroke-linejoin="round"/>
<path d="M16.5 2V6" stroke="#1A1A1A" stroke-width="2" stroke-linecap="round" stroke-linejoin="round"/>
<path d="M8.5 2V6" stroke="#1A1A1A" stroke-width="2" stroke-linecap="round" stroke-linejoin="round"/>
<path d="M7.12529 12.9474C6.81367 12.8404 6.5 13.08 6.5 13.4095V13.8837C6.5 14.1409 6.69542 14.355 6.95036 14.3892C7.71081 14.491 8.40913 14.6558 9.07766 14.8798C9.57777 15.0474 9.96063 14.5351 9.54039 14.2163C8.85105 13.6935 8.04005 13.2618 7.12529 12.9474Z" fill="#1A1A1A"/>
<path d="M15.7664 16.2305C15.2989 16.4138 15.4464 17 15.9485 17H17.9999C18.2761 17 18.4999 16.7762 18.4999 16.5V16.0639C18.4999 15.7486 18.2113 15.5116 17.9041 15.5824C17.0643 15.7759 16.3583 15.9985 15.7664 16.2305Z" fill="#1A1A1A"/>
<path d="M9.317 17C9.81917 17 9.96696 16.4139 9.49943 16.2306C8.84472 15.974 8.05042 15.7289 7.08992 15.5218C6.78421 15.4559 6.5 15.6924 6.5 16.0051V16.5C6.5 16.7761 6.72386 17 7 17H9.317Z" fill="#1A1A1A"/>
<path d="M11.7667 14.8903C11.8904 15.0555 12.0078 15.2252 12.1186 15.3988C12.3466 15.756 12.9187 15.756 13.1467 15.3988C13.2575 15.2251 13.375 15.0555 13.4988 14.8903C14.3221 13.7912 15.7492 12.4823 18.1286 11.767C18.346 11.7016 18.5 11.5041 18.5 11.277V9.50817C18.5 9.22956 18.2731 9.0003 17.9945 9.00001C16.4767 8.99846 13.0423 9.15255 12.5 12.4004C11.9577 9.15255 8.52327 8.99846 7.0055 9.00001C6.7269 9.0003 6.5 9.22956 6.5 9.50817V11.2014C6.5 11.4329 6.65986 11.6331 6.88305 11.6945C9.41509 12.3907 10.9145 13.7526 11.7667 14.8903Z" fill="#1A1A1A"/>
<path d="M15.7253 14.2164C15.3049 14.535 15.6875 15.0471 16.1876 14.8795C16.7807 14.6807 17.3972 14.5286 18.06 14.4257C18.3103 14.3868 18.5 14.1747 18.5 13.9214V13.5048C18.5 13.1695 18.1761 12.9293 17.8626 13.048C17.0608 13.3516 16.344 13.7473 15.7253 14.2164Z" fill="#1A1A1A"/>
</svg>
