<svg width="25" height="17" viewBox="0 0 25 17" fill="none" xmlns="http://www.w3.org/2000/svg">
<path d="M0.984375 7.62305V10.8334C4.42421 11.1765 7.20884 12.1384 10.0159 13.6412C8.0688 10.8805 4.9527 8.71789 0.984375 7.62305Z" fill="#3D3DD8"/>
<path d="M16.398 16.2389H24.9829V13.1035C20.7944 13.9472 18.097 15.1595 16.398 16.2389Z" fill="#3D3DD8"/>
<path d="M10.1001 16.2378C8.33077 15.1136 5.47815 13.8426 0.98288 12.998V16.2378H10.1001Z" fill="#3D3DD8"/>
<path d="M11.5156 11.9565C12.1907 12.8711 12.7709 13.852 13.2471 14.8841C13.724 13.8522 14.3044 12.8713 14.9794 11.9565C16.7102 9.61156 19.7745 6.7968 24.9814 5.40449V0.00367161C22.9362 0.0299417 14.216 -0.598222 12.9821 6.90188C11.7459 -0.598222 3.02808 0.0299417 0.98288 0.00367161V5.27005C6.51505 6.60827 9.7285 9.53352 11.5156 11.9565Z" fill="#3D3DD8"/>
<path d="M16.4822 13.6433C19.1432 12.2185 21.7841 11.2798 24.9814 10.8934V7.77734C21.2672 8.91391 18.342 11.0039 16.4822 13.6433Z" fill="#3D3DD8"/>
</svg>
