<svg width="23" height="20" viewBox="0 0 23 20" fill="none" xmlns="http://www.w3.org/2000/svg">
<path d="M11.25 5C11.25 3.93913 10.8286 2.92172 10.0784 2.17157C9.32828 1.42143 8.31087 1 7.25 1H1.25V16H8.25C9.04565 16 9.80871 16.3161 10.3713 16.8787C10.9339 17.4413 11.25 18.2044 11.25 19M11.25 5V19M11.25 5C11.25 3.93913 11.6714 2.92172 12.4216 2.17157C13.1717 1.42143 14.1891 1 15.25 1H21.25V16H14.25C13.4544 16 12.6913 16.3161 12.1287 16.8787C11.5661 17.4413 11.25 18.2044 11.25 19" stroke="#3D3DD8" stroke-width="2" stroke-linecap="round" stroke-linejoin="round"/>
</svg>
