<svg width="18" height="22" viewBox="0 0 18 22" fill="none" xmlns="http://www.w3.org/2000/svg">
<rect x="0.75" y="0.75" width="16.5" height="20.5" rx="2.25" stroke="white" stroke-width="1.5"/>
<line x1="5.75" y1="18.25" x2="12.25" y2="18.25" stroke="white" stroke-width="1.5" stroke-linecap="round"/>
<line x1="3.75" y1="15.25" x2="14.25" y2="15.25" stroke="white" stroke-width="1.5" stroke-linecap="round"/>
<path d="M4.62606 7.3759C4.31574 7.26278 4.00061 7.5026 4.00061 7.8329V8.0613C4.00061 8.31823 4.19572 8.53193 4.45005 8.56839C4.93242 8.63753 5.38503 8.73783 5.81999 8.8679C6.32514 9.01895 6.69665 8.51365 6.26283 8.21399C5.77823 7.87925 5.23008 7.5961 4.62606 7.3759Z" fill="white"/>
<path d="M11.9688 10.0208C11.4992 10.1937 11.642 10.7659 12.1425 10.7659H13.5C13.7762 10.7659 14 10.542 14 10.2659V10.0702C14 9.75443 13.7104 9.51718 13.4034 9.59107C12.8587 9.72214 12.3832 9.86811 11.9688 10.0208Z" fill="white"/>
<path d="M6.07956 10.7659C6.57997 10.7659 6.72303 10.1935 6.2535 10.0205C5.78221 9.84677 5.23193 9.68174 4.59071 9.53763C4.28519 9.46896 4 9.70555 4 10.0187V10.2659C4 10.542 4.22386 10.7659 4.5 10.7659H6.07956Z" fill="white"/>
<path d="M8.38865 8.98189C8.72071 9.43176 9.49988 9.4318 9.83189 8.98189C10.4677 8.12036 11.5356 7.10664 13.2666 6.48124C13.6924 6.32737 13.9994 5.93693 13.9994 5.48413V5.01446C13.9994 4.45715 13.5442 3.98551 12.9875 4.01284C11.5836 4.08177 9.39049 4.50032 8.99968 6.87578C8.60815 4.50039 6.4155 4.08179 5.01182 4.01285C4.45518 3.98551 4 4.45715 4 5.01446V5.40891C4 5.87063 4.31877 6.26647 4.75667 6.41286C6.60483 7.0307 7.72954 8.08827 8.38865 8.98189Z" fill="white"/>
<path d="M11.9568 8.21554C11.5233 8.51536 11.8949 9.02053 12.3999 8.86935C12.7714 8.75814 13.1557 8.66865 13.5605 8.60175C13.81 8.56049 13.9993 8.34882 13.9993 8.09588V7.91662C13.9993 7.58053 13.6738 7.34019 13.3619 7.46536C12.8488 7.67127 12.3787 7.92381 11.9568 8.21554Z" fill="white"/>
</svg>
