<svg width="40" height="40" viewBox="0 0 40 40" fill="none" xmlns="http://www.w3.org/2000/svg">
<g filter="url(#filter0_b_556_6639)">
<rect width="40" height="40" rx="12" fill="#3D3DD8"/>
<rect x="11.75" y="9.75" width="16.5" height="20.5" rx="2.25" stroke="white" stroke-width="1.5"/>
<line x1="16.75" y1="27.25" x2="23.25" y2="27.25" stroke="white" stroke-width="1.5" stroke-linecap="round"/>
<line x1="14.75" y1="24.25" x2="25.25" y2="24.25" stroke="white" stroke-width="1.5" stroke-linecap="round"/>
<path d="M15.6261 16.3759C15.3158 16.2628 15.0007 16.5026 15.0007 16.8329V17.0613C15.0007 17.3182 15.1958 17.5319 15.4501 17.5684C15.9325 17.6375 16.3851 17.7378 16.8201 17.8679C17.3252 18.019 17.6967 17.5137 17.2629 17.214C16.7783 16.8793 16.2301 16.5961 15.6261 16.3759Z" fill="white"/>
<path d="M22.9688 19.0208C22.4992 19.1937 22.642 19.7659 23.1425 19.7659H24.5C24.7762 19.7659 25 19.542 25 19.2659V19.0702C25 18.7544 24.7104 18.5172 24.4034 18.5911C23.8587 18.7221 23.3832 18.8681 22.9688 19.0208Z" fill="white"/>
<path d="M17.0796 19.7659C17.58 19.7659 17.723 19.1935 17.2535 19.0205C16.7822 18.8468 16.2319 18.6817 15.5907 18.5376C15.2852 18.469 15 18.7056 15 19.0187V19.2659C15 19.542 15.2239 19.7659 15.5 19.7659H17.0796Z" fill="white"/>
<path d="M19.3886 17.9819C19.7207 18.4318 20.4999 18.4318 20.8319 17.9819C21.4677 17.1204 22.5356 16.1066 24.2666 15.4812C24.6924 15.3274 24.9994 14.9369 24.9994 14.4841V14.0145C24.9994 13.4572 24.5442 12.9855 23.9875 13.0128C22.5836 13.0818 20.3905 13.5003 19.9997 15.8758C19.6081 13.5004 17.4155 13.0818 16.0118 13.0128C15.4552 12.9855 15 13.4571 15 14.0145V14.4089C15 14.8706 15.3188 15.2665 15.7567 15.4129C17.6048 16.0307 18.7295 17.0883 19.3886 17.9819Z" fill="white"/>
<path d="M22.9569 17.2155C22.5233 17.5154 22.895 18.0205 23.3999 17.8694C23.7714 17.7581 24.1558 17.6687 24.5605 17.6017C24.8101 17.5605 24.9994 17.3488 24.9994 17.0959V16.9166C24.9994 16.5805 24.6739 16.3402 24.362 16.4654C23.8488 16.6713 23.3788 16.9238 22.9569 17.2155Z" fill="white"/>
</g>
<defs>
<filter id="filter0_b_556_6639" x="-15" y="-15" width="70" height="70" filterUnits="userSpaceOnUse" color-interpolation-filters="sRGB">
<feFlood flood-opacity="0" result="BackgroundImageFix"/>
<feGaussianBlur in="BackgroundImage" stdDeviation="7.5"/>
<feComposite in2="SourceAlpha" operator="in" result="effect1_backgroundBlur_556_6639"/>
<feBlend mode="normal" in="SourceGraphic" in2="effect1_backgroundBlur_556_6639" result="shape"/>
</filter>
</defs>
</svg>
