<svg width="351" height="36" viewBox="0 0 351 36" fill="none" xmlns="http://www.w3.org/2000/svg">
<rect width="351" height="36" rx="10" fill="#F9F9F9"/>
<path d="M26 24L23.1 21.1M24.6667 17.3333C24.6667 20.2789 22.2789 22.6667 19.3333 22.6667C16.3878 22.6667 14 20.2789 14 17.3333C14 14.3878 16.3878 12 19.3333 12C22.2789 12 24.6667 14.3878 24.6667 17.3333Z" stroke="#767676" stroke-linecap="round" stroke-linejoin="round"/>
<path d="M37.456 23.5V12.94H45.712V23.5H44.464V14.06H38.704V23.5H37.456ZM47.8938 19.596C47.8724 18.4867 48.2671 17.5267 49.0778 16.716C49.8991 15.9053 50.8644 15.5107 51.9738 15.532C53.0938 15.5107 54.0591 15.9053 54.8698 16.716C55.6804 17.5267 56.0751 18.4867 56.0538 19.596C56.0751 20.6947 55.6751 21.6547 54.8538 22.476C54.0324 23.2867 53.0671 23.6813 51.9578 23.66C50.8484 23.6813 49.8884 23.2867 49.0778 22.476C48.2671 21.6547 47.8724 20.6947 47.8938 19.596ZM54.7898 19.612C54.7898 18.78 54.5178 18.0813 53.9738 17.516C53.4404 16.9507 52.7738 16.668 51.9738 16.668C51.1738 16.668 50.5018 16.9507 49.9578 17.516C49.4244 18.0707 49.1578 18.7693 49.1578 19.612C49.1578 20.4333 49.4244 21.1267 49.9578 21.692C50.5018 22.2467 51.1684 22.524 51.9578 22.524C52.7471 22.524 53.4138 22.2413 53.9578 21.676C54.5124 21.1107 54.7898 20.4227 54.7898 19.612ZM64.2034 15.532H64.6514V23.5H63.4194V17.996L58.6674 23.676H58.2194V15.708H59.4514V21.228L64.2034 15.532ZM66.8 19.596C66.7787 18.4867 67.1733 17.5267 67.984 16.716C68.7947 15.9053 69.76 15.5107 70.88 15.532C71.552 15.532 72.1653 15.6813 72.72 15.98C73.2747 16.2787 73.7333 16.6947 74.096 17.228L73.216 17.932C72.5973 17.0893 71.824 16.668 70.896 16.668C70.096 16.668 69.424 16.956 68.88 17.532C68.336 18.0973 68.064 18.7853 68.064 19.596C68.064 20.4173 68.336 21.116 68.88 21.692C69.424 22.2573 70.096 22.54 70.896 22.54C71.8133 22.54 72.5813 22.124 73.2 21.292L74.08 21.98C73.312 23.1107 72.2453 23.676 70.88 23.676C69.7493 23.676 68.784 23.2813 67.984 22.492C67.1947 21.692 66.8 20.7267 66.8 19.596ZM76.1725 23.5V15.708H77.4045V23.5H76.1725ZM79.0685 19.244L82.7325 23.5H81.1805L77.5645 19.276L80.8445 15.708H82.3805L79.0685 19.244Z" fill="#767676"/>
</svg>
