<svg width="375" height="144" viewBox="0 0 375 144" fill="none" xmlns="http://www.w3.org/2000/svg">
<rect width="375" height="144" fill="white"/>
<path fill-rule="evenodd" clip-rule="evenodd" d="M320.397 20.2845C322.622 20.2846 324.761 21.1387 326.374 22.6703C326.495 22.7885 326.689 22.787 326.809 22.6669L327.969 21.4966C328.03 21.4357 328.064 21.3532 328.063 21.2673C328.063 21.1815 328.028 21.0994 327.967 21.0392C323.735 16.9869 317.059 16.9869 312.827 21.0392C312.765 21.0993 312.731 21.1814 312.73 21.2673C312.729 21.3531 312.763 21.4356 312.824 21.4966L313.985 22.6669C314.104 22.7872 314.298 22.7887 314.42 22.6703C316.032 21.1386 318.172 20.2845 320.397 20.2845ZM320.397 24.0921C321.619 24.092 322.798 24.5459 323.704 25.3657C323.827 25.4821 324.02 25.4795 324.139 25.36L325.299 24.1897C325.36 24.1283 325.393 24.045 325.393 23.9585C325.392 23.872 325.356 23.7894 325.294 23.7293C322.535 21.1649 318.262 21.1649 315.503 23.7293C315.44 23.7894 315.405 23.872 315.404 23.9586C315.403 24.0451 315.437 24.1284 315.498 24.1897L316.657 25.36C316.777 25.4795 316.97 25.4821 317.092 25.3657C317.998 24.5465 319.176 24.0926 320.397 24.0921ZM322.719 26.6539C322.721 26.7407 322.687 26.8243 322.625 26.8851L320.62 28.9071C320.561 28.9666 320.481 29 320.397 29C320.313 29 320.233 28.9666 320.174 28.9071L318.169 26.8851C318.107 26.8243 318.073 26.7406 318.075 26.6538C318.076 26.567 318.114 26.4849 318.179 26.4267C319.459 25.3444 321.335 25.3444 322.616 26.4267C322.68 26.4849 322.717 26.5671 322.719 26.6539Z" fill="black"/>
<path fill-rule="evenodd" clip-rule="evenodd" d="M305.9 18H304.9C304.348 18 303.9 18.4477 303.9 19V27.6667C303.9 28.219 304.348 28.6667 304.9 28.6667H305.9C306.452 28.6667 306.9 28.219 306.9 27.6667V19C306.9 18.4477 306.452 18 305.9 18ZM300.6 20.3334H301.6C302.152 20.3334 302.6 20.7811 302.6 21.3334V27.6667C302.6 28.219 302.152 28.6667 301.6 28.6667H300.6C300.048 28.6667 299.6 28.219 299.6 27.6667V21.3334C299.6 20.7811 300.048 20.3334 300.6 20.3334ZM297.3 22.6666H296.3C295.748 22.6666 295.3 23.1143 295.3 23.6666V27.6666C295.3 28.2189 295.748 28.6666 296.3 28.6666H297.3C297.852 28.6666 298.3 28.2189 298.3 27.6666V23.6666C298.3 23.1143 297.852 22.6666 297.3 22.6666ZM293 24.6667H292C291.448 24.6667 291 25.1144 291 25.6667V27.6667C291 28.219 291.448 28.6667 292 28.6667H293C293.552 28.6667 294 28.219 294 27.6667V25.6667C294 25.1144 293.552 24.6667 293 24.6667Z" fill="black"/>
<rect opacity="0.35" x="334" y="18.5" width="21" height="10.3333" rx="2.5" stroke="black"/>
<path opacity="0.4" d="M356.5 21.6667V25.6667C357.305 25.3279 357.828 24.5398 357.828 23.6667C357.828 22.7935 357.305 22.0054 356.5 21.6667Z" fill="black"/>
<rect x="335.5" y="20" width="18" height="7.33333" rx="1.5" fill="black"/>
<path d="M33.3075 29H35.1972V18.4312H33.3148L30.5536 20.3721V22.1519L33.183 20.2915H33.3075V29ZM37.8342 29H45.173V27.4326H40.3903V27.2788L42.507 25.228C44.4333 23.375 45.0119 22.4229 45.0119 21.2217V21.1997C45.0119 19.4199 43.5324 18.1675 41.4743 18.1675C39.2697 18.1675 37.7316 19.5444 37.7316 21.5146L37.739 21.5366L39.4968 21.5439L39.5041 21.5146C39.5041 20.4233 40.2585 19.6836 41.3791 19.6836C42.4777 19.6836 43.1442 20.3867 43.1442 21.3608V21.3828C43.1442 22.1958 42.7414 22.7305 41.3059 24.1807L37.8342 27.7256V29ZM48.3301 22.1519C49.0039 22.1519 49.4946 21.6392 49.4946 20.9946C49.4946 20.3428 49.0039 19.8374 48.3301 19.8374C47.6636 19.8374 47.1655 20.3428 47.1655 20.9946C47.1655 21.6392 47.6636 22.1519 48.3301 22.1519ZM48.3301 27.5864C49.0039 27.5864 49.4946 27.0811 49.4946 26.4292C49.4946 25.7773 49.0039 25.272 48.3301 25.272C47.6636 25.272 47.1655 25.7773 47.1655 26.4292C47.1655 27.0811 47.6636 27.5864 48.3301 27.5864ZM56.4822 29H58.2913V26.9712H59.7122V25.4111H58.2913V18.4312H55.618C54.1824 20.6138 52.681 23.0454 51.3113 25.4258V26.9712H56.4822V29ZM53.0691 25.4551V25.3452C54.0945 23.5508 55.3177 21.5952 56.4017 19.9399H56.5115V25.4551H53.0691ZM65.3302 29.2124C67.7618 29.2124 69.4537 27.9526 69.4537 26.1436V26.1289C69.4537 24.7739 68.4723 23.7266 67.0587 23.4409V23.397C68.2672 23.0747 69.0729 22.1885 69.0729 21.0532V21.0386C69.0729 19.4126 67.5201 18.2188 65.3302 18.2188C63.1402 18.2188 61.5875 19.4126 61.5875 21.0386V21.0532C61.5875 22.1885 62.3932 23.0747 63.6017 23.397V23.4409C62.1954 23.7266 61.2066 24.7739 61.2066 26.1289V26.1436C61.2066 27.9526 62.8985 29.2124 65.3302 29.2124ZM65.3302 22.7964C64.2242 22.7964 63.4552 22.1519 63.4552 21.229V21.2144C63.4552 20.2915 64.2242 19.647 65.3302 19.647C66.4361 19.647 67.2052 20.2915 67.2052 21.2144V21.229C67.2052 22.1519 66.4361 22.7964 65.3302 22.7964ZM65.3302 27.7695C64.0631 27.7695 63.1622 27.0371 63.1622 26.019V26.0044C63.1622 24.979 64.0484 24.2393 65.3302 24.2393C66.6046 24.2393 67.4981 24.979 67.4981 26.0044V26.019C67.4981 27.0371 66.5973 27.7695 65.3302 27.7695Z" fill="black"/>
<path d="M145.528 80.5V65.32H155.28V68.126H148.633V80.5H145.528ZM156.44 69.115H165.479V80.5H162.397V71.737H159.338L159.315 72.611C159.239 75.5703 158.909 77.6557 158.326 78.867C157.759 80.063 156.77 80.6763 155.359 80.707C154.93 80.707 154.539 80.638 154.186 80.5V77.947C154.34 77.9777 154.485 77.993 154.623 77.993C155.252 77.993 155.697 77.5253 155.957 76.59C156.233 75.6547 156.387 74.0677 156.417 71.829L156.44 69.115ZM178.18 73.738V80.5H175.328V79.396C174.439 80.316 173.281 80.776 171.855 80.776C170.659 80.776 169.701 80.4617 168.98 79.833C168.275 79.2043 167.922 78.384 167.922 77.372C167.922 76.3447 168.306 75.5397 169.072 74.957C169.854 74.359 170.905 74.06 172.223 74.06H175.075V73.554C175.075 72.91 174.891 72.4193 174.523 72.082C174.171 71.7293 173.649 71.553 172.959 71.553C172.392 71.553 171.878 71.6757 171.418 71.921C170.958 72.1663 170.468 72.565 169.946 73.117L168.336 71.208C169.655 69.644 171.311 68.862 173.304 68.862C174.807 68.862 175.995 69.2913 176.869 70.15C177.743 70.9933 178.18 72.1893 178.18 73.738ZM175.075 76.245V76.107H172.637C171.579 76.107 171.05 76.4903 171.05 77.257C171.05 77.6403 171.196 77.947 171.487 78.177C171.794 78.3917 172.193 78.499 172.683 78.499C173.373 78.499 173.941 78.292 174.385 77.878C174.845 77.4487 175.075 76.9043 175.075 76.245ZM191.38 77.027C191.38 78.039 190.989 78.8747 190.207 79.534C189.441 80.178 188.467 80.5 187.286 80.5H181.237V69.115H186.527C187.708 69.115 188.666 69.4063 189.402 69.989C190.154 70.5717 190.529 71.346 190.529 72.312C190.529 73.14 190.223 73.8377 189.609 74.405C190.79 74.9263 191.38 75.8003 191.38 77.027ZM184.181 71.438V73.554H186.343C187.263 73.554 187.723 73.2013 187.723 72.496C187.723 71.7907 187.263 71.438 186.343 71.438H184.181ZM188.091 77.855C188.383 77.625 188.528 77.3183 188.528 76.935C188.528 76.5517 188.383 76.2527 188.091 76.038C187.815 75.8233 187.432 75.716 186.941 75.716H184.181V78.2H186.941C187.432 78.2 187.815 78.085 188.091 77.855ZM193.95 80.5V69.115H197.032V73.278H201.241V69.115H204.323V80.5H201.241V75.923H197.032V80.5H193.95ZM217.015 73.738V80.5H214.163V79.396C213.274 80.316 212.116 80.776 210.69 80.776C209.494 80.776 208.536 80.4617 207.815 79.833C207.11 79.2043 206.757 78.384 206.757 77.372C206.757 76.3447 207.141 75.5397 207.907 74.957C208.689 74.359 209.74 74.06 211.058 74.06H213.91V73.554C213.91 72.91 213.726 72.4193 213.358 72.082C213.006 71.7293 212.484 71.553 211.794 71.553C211.227 71.553 210.713 71.6757 210.253 71.921C209.793 72.1663 209.303 72.565 208.781 73.117L207.171 71.208C208.49 69.644 210.146 68.862 212.139 68.862C213.642 68.862 214.83 69.2913 215.704 70.15C216.578 70.9933 217.015 72.1893 217.015 73.738ZM213.91 76.245V76.107H211.472C210.414 76.107 209.885 76.4903 209.885 77.257C209.885 77.6403 210.031 77.947 210.322 78.177C210.629 78.3917 211.028 78.499 211.518 78.499C212.208 78.499 212.776 78.292 213.22 77.878C213.68 77.4487 213.91 76.9043 213.91 76.245ZM224.465 69.115H229.617V80.5H226.535V77.004H225.316L222.51 80.5H219.014L222.234 76.567C221.468 76.2603 220.87 75.8003 220.44 75.187C220.026 74.5737 219.819 73.8607 219.819 73.048C219.819 71.852 220.241 70.9013 221.084 70.196C221.928 69.4753 223.055 69.115 224.465 69.115ZM226.535 74.497V71.737H224.58C224.09 71.737 223.699 71.8597 223.407 72.105C223.116 72.3503 222.97 72.68 222.97 73.094C222.97 73.5233 223.116 73.8683 223.407 74.129C223.699 74.3743 224.09 74.497 224.58 74.497H226.535Z" fill="#1A1A1A"/>
<path d="M309.5 84.5L304.425 79.425M307.167 72.8333C307.167 77.988 302.988 82.1667 297.833 82.1667C292.679 82.1667 288.5 77.988 288.5 72.8333C288.5 67.6787 292.679 63.5 297.833 63.5C302.988 63.5 307.167 67.6787 307.167 72.8333Z" stroke="#3D3DD8" stroke-width="2" stroke-linecap="round" stroke-linejoin="round"/>
<path d="M349.018 84.5C348.813 84.8536 348.518 85.1471 348.164 85.3511C347.81 85.5552 347.408 85.6625 346.999 85.6625C346.591 85.6625 346.189 85.5552 345.835 85.3511C345.481 85.1471 345.186 84.8536 344.981 84.5M354 69.3333C354 67.4768 353.263 65.6964 351.95 64.3836C350.637 63.0708 348.857 62.3333 347 62.3333C345.143 62.3333 343.363 63.0708 342.05 64.3836C340.737 65.6964 340 67.4768 340 69.3333C340 77.5 336.5 79.8333 336.5 79.8333H357.5C357.5 79.8333 354 77.5 354 69.3333Z" stroke="#3D3DD8" stroke-width="2" stroke-linecap="round" stroke-linejoin="round"/>
<rect x="351" y="60" width="18" height="16" rx="8" fill="#E71D36"/>
<path d="M359.544 66.58C359.544 66.8333 359.504 67.0767 359.424 67.31C359.364 67.4967 359.27 67.7 359.144 67.92C359.037 68.1 358.867 68.35 358.634 68.67L356.994 71H355.734L357.324 68.75C357.237 68.77 357.14 68.78 357.034 68.78C356.46 68.78 355.957 68.5667 355.524 68.14C355.09 67.7067 354.874 67.1833 354.874 66.57C354.874 65.93 355.104 65.39 355.564 64.95C356.024 64.51 356.574 64.29 357.214 64.29C357.847 64.2767 358.397 64.4967 358.864 64.95C359.33 65.3967 359.557 65.94 359.544 66.58ZM358.124 67.5C358.37 67.2533 358.494 66.9433 358.494 66.57C358.494 66.1967 358.37 65.8867 358.124 65.64C357.87 65.3867 357.567 65.26 357.214 65.26C356.847 65.26 356.537 65.3867 356.284 65.64C356.037 65.8867 355.914 66.1967 355.914 66.57C355.914 66.95 356.037 67.2633 356.284 67.51C356.53 67.7567 356.84 67.88 357.214 67.88C357.567 67.88 357.87 67.7533 358.124 67.5ZM362.29 70.13V68.28H360.49V67.37H362.29V65.54H363.31V67.37H365.07V68.28H363.31V70.13H362.29Z" fill="white"/>
<path d="M261.079 121.22C261.047 119.716 261.585 118.425 262.695 117.348C263.804 116.271 265.116 115.743 266.631 115.764C267.591 115.764 268.471 115.983 269.271 116.42C270.071 116.857 270.7 117.449 271.159 118.196L269.879 119.14C269.1 117.924 268.023 117.316 266.647 117.316C265.559 117.316 264.652 117.689 263.927 118.436C263.201 119.172 262.839 120.1 262.839 121.22C262.839 122.34 263.201 123.273 263.927 124.02C264.652 124.756 265.559 125.124 266.647 125.124C268.023 125.124 269.1 124.516 269.879 123.3L271.159 124.244C270.7 125.001 270.071 125.599 269.271 126.036C268.481 126.463 267.601 126.676 266.631 126.676C265.116 126.697 263.804 126.169 262.695 125.092C261.585 124.015 261.047 122.724 261.079 121.22ZM272.423 122.564C272.402 121.444 272.802 120.479 273.623 119.668C274.455 118.847 275.436 118.447 276.567 118.468C277.708 118.447 278.695 118.847 279.527 119.668C280.359 120.489 280.764 121.455 280.743 122.564C280.764 123.684 280.359 124.655 279.527 125.476C278.695 126.297 277.708 126.697 276.567 126.676C275.436 126.697 274.455 126.297 273.623 125.476C272.802 124.644 272.402 123.673 272.423 122.564ZM279.015 122.58C279.015 121.855 278.78 121.247 278.311 120.756C277.842 120.255 277.266 120.004 276.583 120.004C275.89 120.004 275.308 120.255 274.839 120.756C274.37 121.247 274.135 121.855 274.135 122.58C274.135 123.305 274.364 123.913 274.823 124.404C275.292 124.884 275.874 125.124 276.567 125.124C277.26 125.124 277.842 124.879 278.311 124.388C278.78 123.897 279.015 123.295 279.015 122.58ZM289.203 126.5H287.283L285.315 123.62L283.363 126.5H281.443L284.355 122.42L281.651 118.644H283.571L285.331 121.236L287.075 118.644H288.995L286.275 122.436L289.203 126.5ZM298.814 122.564C298.814 123.737 298.446 124.719 297.71 125.508C296.984 126.287 296.067 126.676 294.958 126.676C293.87 126.676 292.995 126.297 292.334 125.54V129.38H290.654V118.644H292.222V119.748C292.819 118.895 293.731 118.468 294.958 118.468C296.067 118.468 296.984 118.863 297.71 119.652C298.446 120.431 298.814 121.401 298.814 122.564ZM296.398 124.42C296.856 123.94 297.086 123.327 297.086 122.58C297.086 121.833 296.856 121.22 296.398 120.74C295.939 120.249 295.368 120.004 294.686 120.004C294.024 120.004 293.464 120.228 293.006 120.676C292.547 121.124 292.318 121.753 292.318 122.564C292.318 123.385 292.547 124.02 293.006 124.468C293.464 124.916 294.024 125.14 294.686 125.14C295.368 125.14 295.939 124.9 296.398 124.42ZM306.987 121.748V126.5H305.419V125.62C304.833 126.324 303.995 126.676 302.907 126.676C302.086 126.676 301.425 126.468 300.923 126.052C300.422 125.636 300.171 125.087 300.171 124.404C300.171 123.721 300.433 123.177 300.955 122.772C301.478 122.367 302.182 122.164 303.067 122.164H305.291V121.652C305.291 121.108 305.142 120.692 304.843 120.404C304.555 120.116 304.145 119.972 303.611 119.972C302.811 119.972 302.086 120.361 301.435 121.14L300.459 120.148C301.227 119.028 302.331 118.468 303.771 118.468C304.753 118.468 305.531 118.756 306.107 119.332C306.694 119.908 306.987 120.713 306.987 121.748ZM305.291 123.524V123.38H303.275C302.347 123.38 301.883 123.7 301.883 124.34C301.883 124.66 302.006 124.916 302.251 125.108C302.507 125.289 302.843 125.38 303.259 125.38C303.835 125.38 304.315 125.204 304.699 124.852C305.094 124.5 305.291 124.057 305.291 123.524ZM309.341 126.5V118.644H311.037V121.652H314.413V118.644H316.093V126.5H314.413V123.108H311.037V126.5H309.341ZM325.616 123.124H319.76C319.867 123.764 320.149 124.271 320.608 124.644C321.077 125.007 321.648 125.188 322.32 125.188C323.152 125.188 323.915 124.879 324.608 124.26L325.408 125.412C324.523 126.255 323.477 126.676 322.272 126.676C321.077 126.676 320.075 126.287 319.264 125.508C318.453 124.719 318.048 123.743 318.048 122.58C318.027 121.449 318.421 120.479 319.232 119.668C320.043 118.847 321.003 118.447 322.112 118.468C323.147 118.468 324.011 118.815 324.704 119.508C325.397 120.191 325.744 121.044 325.744 122.068C325.744 122.377 325.701 122.729 325.616 123.124ZM319.792 121.812H324.064C324.053 121.225 323.856 120.761 323.472 120.42C323.088 120.068 322.613 119.892 322.048 119.892C321.493 119.892 321.008 120.068 320.592 120.42C320.187 120.761 319.92 121.225 319.792 121.812ZM327.685 126.5V118.644H329.381V121.652H332.757V118.644H334.437V126.5H332.757V123.108H329.381V126.5H327.685ZM336.904 126.5V118.644H338.6V121.652H341.976V118.644H343.656V126.5H341.976V123.108H338.6V126.5H336.904ZM346.123 126.5V118.644H347.819V121.14H349.467C350.395 121.14 351.141 121.38 351.707 121.86C352.272 122.34 352.555 122.991 352.555 123.812C352.555 124.633 352.272 125.289 351.707 125.78C351.141 126.26 350.395 126.5 349.467 126.5H346.123ZM353.563 126.5V118.644H355.243V126.5H353.563ZM347.819 125.044H349.403C349.861 125.044 350.213 124.943 350.459 124.74C350.715 124.527 350.843 124.223 350.843 123.828C350.843 123.433 350.715 123.129 350.459 122.916C350.203 122.703 349.845 122.596 349.387 122.596H347.819V125.044ZM364.772 123.124H358.916C359.023 123.764 359.306 124.271 359.764 124.644C360.234 125.007 360.804 125.188 361.476 125.188C362.308 125.188 363.071 124.879 363.764 124.26L364.564 125.412C363.679 126.255 362.634 126.676 361.428 126.676C360.234 126.676 359.231 126.287 358.42 125.508C357.61 124.719 357.204 123.743 357.204 122.58C357.183 121.449 357.578 120.479 358.388 119.668C359.199 118.847 360.159 118.447 361.268 118.468C362.303 118.468 363.167 118.815 363.86 119.508C364.554 120.191 364.9 121.044 364.9 122.068C364.9 122.377 364.858 122.729 364.772 123.124ZM358.948 121.812H363.22C363.21 121.225 363.012 120.761 362.628 120.42C362.244 120.068 361.77 119.892 361.204 119.892C360.65 119.892 360.164 120.068 359.748 120.42C359.343 120.761 359.076 121.225 358.948 121.812Z" fill="#818C99"/>
<path d="M162.706 126.5V117.46H159.154V115.94H167.97V117.46H164.402V126.5H162.706ZM176.743 122.564C176.743 123.737 176.375 124.719 175.639 125.508C174.914 126.287 173.997 126.676 172.887 126.676C171.799 126.676 170.925 126.297 170.263 125.54V129.38H168.583V118.644H170.151V119.748C170.749 118.895 171.661 118.468 172.887 118.468C173.997 118.468 174.914 118.863 175.639 119.652C176.375 120.431 176.743 121.401 176.743 122.564ZM174.327 124.42C174.786 123.94 175.015 123.327 175.015 122.58C175.015 121.833 174.786 121.22 174.327 120.74C173.869 120.249 173.298 120.004 172.615 120.004C171.954 120.004 171.394 120.228 170.935 120.676C170.477 121.124 170.247 121.753 170.247 122.564C170.247 123.385 170.477 124.02 170.935 124.468C171.394 124.916 171.954 125.14 172.615 125.14C173.298 125.14 173.869 124.9 174.327 124.42ZM185.749 123.124H179.893C180 123.764 180.282 124.271 180.741 124.644C181.21 125.007 181.781 125.188 182.453 125.188C183.285 125.188 184.048 124.879 184.741 124.26L185.541 125.412C184.656 126.255 183.61 126.676 182.405 126.676C181.21 126.676 180.208 126.287 179.397 125.508C178.586 124.719 178.181 123.743 178.181 122.58C178.16 121.449 178.554 120.479 179.365 119.668C180.176 118.847 181.136 118.447 182.245 118.468C183.28 118.468 184.144 118.815 184.837 119.508C185.53 120.191 185.877 121.044 185.877 122.068C185.877 122.377 185.834 122.729 185.749 123.124ZM179.925 121.812H184.197C184.186 121.225 183.989 120.761 183.605 120.42C183.221 120.068 182.746 119.892 182.181 119.892C181.626 119.892 181.141 120.068 180.725 120.42C180.32 120.761 180.053 121.225 179.925 121.812ZM187.818 126.5V118.644H189.514V121.652H192.89V118.644H194.57V126.5H192.89V123.108H189.514V126.5H187.818ZM203.661 125.044H204.957V128.756H203.325V126.5H197.549V128.756H195.901V125.044H196.781C197.378 124.404 197.709 122.969 197.773 120.74L197.837 118.644H203.661V125.044ZM198.525 125.044H201.981V120.1H199.357L199.341 120.9C199.298 122.799 199.026 124.18 198.525 125.044ZM206.74 126.5V118.644H208.436V121.14H210.084C211.012 121.14 211.758 121.38 212.324 121.86C212.889 122.34 213.172 122.991 213.172 123.812C213.172 124.633 212.889 125.289 212.324 125.78C211.758 126.26 211.012 126.5 210.084 126.5H206.74ZM214.18 126.5V118.644H215.86V126.5H214.18ZM208.436 125.044H210.02C210.478 125.044 210.83 124.943 211.076 124.74C211.332 124.527 211.46 124.223 211.46 123.828C211.46 123.433 211.332 123.129 211.076 122.916C210.82 122.703 210.462 122.596 210.004 122.596H208.436V125.044Z" fill="#767676"/>
<rect x="15" y="135" width="95" height="2" rx="1" fill="#3D3DD8"/>
<path d="M22.3202 126.5V115.94H24.0162V120.148H29.3282V115.94H31.0242V126.5H29.3282V121.668H24.0162V126.5H22.3202ZM33.0091 122.564C32.9877 121.444 33.3877 120.479 34.2091 119.668C35.0411 118.847 36.0224 118.447 37.1531 118.468C38.2944 118.447 39.2811 118.847 40.1131 119.668C40.9451 120.489 41.3504 121.455 41.3291 122.564C41.3504 123.684 40.9451 124.655 40.1131 125.476C39.2811 126.297 38.2944 126.697 37.1531 126.676C36.0224 126.697 35.0411 126.297 34.2091 125.476C33.3877 124.644 32.9877 123.673 33.0091 122.564ZM39.6011 122.58C39.6011 121.855 39.3664 121.247 38.8971 120.756C38.4277 120.255 37.8517 120.004 37.1691 120.004C36.4757 120.004 35.8944 120.255 35.4251 120.756C34.9557 121.247 34.7211 121.855 34.7211 122.58C34.7211 123.305 34.9504 123.913 35.4091 124.404C35.8784 124.884 36.4597 125.124 37.1531 125.124C37.8464 125.124 38.4277 124.879 38.8971 124.388C39.3664 123.897 39.6011 123.295 39.6011 122.58ZM49.9911 124.116C49.9911 124.82 49.7297 125.396 49.2071 125.844C48.6951 126.281 48.0231 126.5 47.1911 126.5H43.2711V118.644H46.7271C47.5057 118.644 48.1404 118.841 48.6311 119.236C49.1217 119.631 49.3671 120.148 49.3671 120.788C49.3671 121.417 49.1271 121.908 48.6471 122.26C49.5431 122.601 49.9911 123.22 49.9911 124.116ZM44.9191 120.004V121.78H46.6631C47.4097 121.78 47.7831 121.481 47.7831 120.884C47.7831 120.297 47.4097 120.004 46.6631 120.004H44.9191ZM48.3911 124.084C48.3911 123.775 48.2684 123.529 48.0231 123.348C47.7884 123.167 47.4577 123.076 47.0311 123.076H44.9191V125.156H47.0311C47.4471 125.156 47.7777 125.06 48.0231 124.868C48.2684 124.665 48.3911 124.404 48.3911 124.084ZM51.5403 122.564C51.519 121.444 51.919 120.479 52.7403 119.668C53.5723 118.847 54.5536 118.447 55.6843 118.468C56.8256 118.447 57.8123 118.847 58.6443 119.668C59.4763 120.489 59.8816 121.455 59.8603 122.564C59.8816 123.684 59.4763 124.655 58.6443 125.476C57.8123 126.297 56.8256 126.697 55.6843 126.676C54.5536 126.697 53.5723 126.297 52.7403 125.476C51.919 124.644 51.519 123.673 51.5403 122.564ZM58.1323 122.58C58.1323 121.855 57.8976 121.247 57.4283 120.756C56.959 120.255 56.383 120.004 55.7003 120.004C55.007 120.004 54.4256 120.255 53.9563 120.756C53.487 121.247 53.2523 121.855 53.2523 122.58C53.2523 123.305 53.4816 123.913 53.9403 124.404C54.4096 124.884 54.991 125.124 55.6843 125.124C56.3776 125.124 56.959 124.879 57.4283 124.388C57.8976 123.897 58.1323 123.295 58.1323 122.58ZM61.2903 122.564C61.269 121.444 61.6743 120.479 62.5063 119.668C63.3383 118.847 64.3196 118.447 65.4503 118.468C66.9223 118.468 68.0263 119.076 68.7623 120.292L67.5783 121.22C67.0236 120.42 66.3196 120.02 65.4663 120.02C64.7623 120.02 64.1756 120.265 63.7063 120.756C63.237 121.247 63.0023 121.849 63.0023 122.564C63.0023 123.289 63.237 123.897 63.7063 124.388C64.1756 124.879 64.7623 125.124 65.4663 125.124C66.2983 125.124 67.0023 124.729 67.5783 123.94L68.7623 124.852C68.4103 125.428 67.9463 125.876 67.3703 126.196C66.7943 126.516 66.1543 126.676 65.4503 126.676C64.2876 126.676 63.301 126.276 62.4903 125.476C61.6903 124.676 61.2903 123.705 61.2903 122.564ZM72.1984 126.5V120.1H69.6704V118.644H76.4064V120.1H73.8784V126.5H72.1984ZM84.1997 118.468H84.7757V126.5H83.0797V121.62L78.5037 126.676H77.9117V118.644H79.6077V123.556L84.1997 118.468Z" fill="#1A1A1A"/>
<path d="M93.5 119.5L97.5 123.5L101.5 119.5" stroke="#3D3DD8" stroke-linecap="round" stroke-linejoin="round"/>
</svg>
