<svg width="18" height="18" viewBox="0 0 18 18" fill="none" xmlns="http://www.w3.org/2000/svg">
<path d="M16.6486 6.29488L11.8086 5.87488L9.91861 1.42488C9.57861 0.614883 8.41861 0.614883 8.07861 1.42488L6.18861 5.88488L1.35861 6.29488C0.478608 6.36488 0.118608 7.46488 0.788608 8.04488L4.45861 11.2249L3.35861 15.9449C3.15861 16.8049 4.08861 17.4849 4.84861 17.0249L8.99861 14.5249L13.1486 17.0349C13.9086 17.4949 14.8386 16.8149 14.6386 15.9549L13.5386 11.2249L17.2086 8.04488C17.8786 7.46488 17.5286 6.36488 16.6486 6.29488ZM8.99861 12.6549L5.23861 14.9249L6.23861 10.6449L2.91861 7.76488L7.29861 7.38488L8.99861 3.35488L10.7086 7.39488L15.0886 7.77488L11.7686 10.6549L12.7686 14.9349L8.99861 12.6549Z" fill="#6677A2"/>
</svg>
