<svg width="18" height="18" viewBox="0 0 18 18" fill="none" xmlns="http://www.w3.org/2000/svg">
<path d="M16.6485 6.29488L11.8085 5.87488L9.91855 1.42488C9.57855 0.614883 8.41855 0.614883 8.07855 1.42488L6.18855 5.88488L1.35855 6.29488C0.478547 6.36488 0.118547 7.46488 0.788547 8.04488L4.45855 11.2249L3.35855 15.9449C3.15855 16.8049 4.08855 17.4849 4.84855 17.0249L8.99855 14.5249L13.1485 17.0349C13.9085 17.4949 14.8385 16.8149 14.6385 15.9549L13.5385 11.2249L17.2085 8.04488C17.8785 7.46488 17.5285 6.36488 16.6485 6.29488ZM8.99855 12.6549V3.35488L10.7085 7.39488L15.0885 7.77488L11.7685 10.6549L12.7685 14.9349L8.99855 12.6549Z" fill="#FFCE31"/>
</svg>
