<svg width="40" height="40" viewBox="0 0 40 40" fill="none" xmlns="http://www.w3.org/2000/svg">
<g filter="url(#filter0_b_556_6653)">
<rect width="40" height="40" rx="12" fill="#3D3DD8"/>
<path d="M21.4531 8C21.0648 8 20.75 8.31481 20.75 8.70312V18.5938C20.75 18.9821 21.0648 19.2969 21.4531 19.2969H31.2969C31.6852 19.2969 32 18.9821 32 18.5938C32 12.7754 27.2784 8 21.4531 8ZM22.1562 17.8906V9.43316C26.6382 9.77745 30.2264 13.3851 30.5673 17.8906H22.1562Z" fill="white"/>
<path d="M22.7559 30.4248L19.3438 21.2794V11.5625C19.3438 11.1742 19.0289 10.8594 18.6406 10.8594C12.8504 10.8594 8 15.5538 8 21.4062C8 27.215 12.8034 32 18.6406 32C19.9145 32 21.1608 31.7742 22.3447 31.3287C22.7075 31.1922 22.8914 30.7879 22.7559 30.4248ZM18.6406 30.5938C13.5488 30.5938 9.40625 26.4723 9.40625 21.4062C9.40625 16.6002 13.1728 12.6485 17.9375 12.2919V21.4062C17.9375 21.4902 17.9525 21.5734 17.9818 21.6521L21.1838 30.2341C20.3609 30.473 19.5084 30.5938 18.6406 30.5938Z" fill="white"/>
<path d="M31.2969 20.7031H21.4531C21.2227 20.7031 21.0069 20.816 20.8756 21.0053C20.7441 21.1946 20.7138 21.4362 20.7944 21.6521L24.2509 30.9164C24.3874 31.2821 24.7947 31.4651 25.1573 31.3287C29.2501 29.7889 32 25.8013 32 21.4063C32 21.0179 31.6852 20.7031 31.2969 20.7031ZM25.3122 29.7383L22.4659 22.1047H30.5666C30.3123 25.3994 28.288 28.3433 25.3122 29.7383Z" fill="white"/>
</g>
<defs>
<filter id="filter0_b_556_6653" x="-15" y="-15" width="70" height="70" filterUnits="userSpaceOnUse" color-interpolation-filters="sRGB">
<feFlood flood-opacity="0" result="BackgroundImageFix"/>
<feGaussianBlur in="BackgroundImage" stdDeviation="7.5"/>
<feComposite in2="SourceAlpha" operator="in" result="effect1_backgroundBlur_556_6653"/>
<feBlend mode="normal" in="SourceGraphic" in2="effect1_backgroundBlur_556_6653" result="shape"/>
</filter>
</defs>
</svg>
