<svg width="12" height="16" viewBox="0 0 12 16" fill="none" xmlns="http://www.w3.org/2000/svg">
<path d="M7.33366 1.33301H2.00033C1.6467 1.33301 1.30756 1.47348 1.05752 1.72353C0.807468 1.97358 0.666992 2.31272 0.666992 2.66634V13.333C0.666992 13.6866 0.807468 14.0258 1.05752 14.2758C1.30756 14.5259 1.6467 14.6663 2.00033 14.6663H10.0003C10.3539 14.6663 10.6931 14.5259 10.9431 14.2758C11.1932 14.0258 11.3337 13.6866 11.3337 13.333V5.33301M7.33366 1.33301L11.3337 5.33301M7.33366 1.33301L7.33366 5.33301H11.3337M8.66699 8.66634H3.33366M8.66699 11.333H3.33366M4.66699 5.99967H3.33366" stroke="#767676" stroke-linecap="round" stroke-linejoin="round"/>
</svg>
